<svg xmlns="http://www.w3.org/2000/svg" xmlns:xlink="http://www.w3.org/1999/xlink" width="400" zoomAndPan="magnify" viewBox="0 0 300 299.999988" height="400" preserveAspectRatio="xMidYMid meet" version="1.0"><defs><clipPath id="7b27c6c0ce"><path d="M 0 74 L 300 74 L 300 226.5 L 0 226.5 Z M 0 74 " clip-rule="nonzero"/></clipPath></defs><g clip-path="url(#7b27c6c0ce)"><path fill="#ffffff" d="M 294.128906 117.828125 L 165.148438 76.921875 C 155.230469 73.789062 144.769531 73.789062 134.859375 76.921875 L 5.71875 117.878906 C 2.371094 119.046875 0.210938 122.085938 0.210938 125.617188 C 0.210938 129.148438 2.371094 132.175781 5.871094 133.40625 L 77.585938 156.152344 L 77.585938 209.457031 C 77.585938 211.691406 78.976562 213.691406 81.074219 214.472656 C 103.074219 222.636719 126.257812 226.765625 150 226.765625 C 173.742188 226.765625 196.925781 222.625 218.925781 214.472656 C 221.023438 213.703125 222.414062 211.691406 222.414062 209.457031 L 222.414062 175.699219 C 222.414062 172.746094 220.015625 170.351562 217.0625 170.351562 C 214.109375 170.351562 211.714844 172.746094 211.714844 175.699219 L 211.714844 205.699219 C 172.199219 219.46875 127.800781 219.46875 88.285156 205.699219 L 88.285156 159.554688 L 134.859375 174.320312 C 139.8125 175.882812 144.90625 176.671875 150 176.671875 C 155.09375 176.671875 160.195312 175.890625 165.148438 174.320312 L 233.851562 152.503906 L 233.851562 221.429688 C 233.851562 224.382812 236.246094 226.777344 239.199219 226.777344 C 242.152344 226.777344 244.550781 224.382812 244.550781 221.429688 L 244.550781 145.195312 C 244.550781 145.066406 244.441406 144.980469 244.441406 144.855469 C 244.410156 144.425781 244.441406 144.007812 244.304688 143.582031 C 244.152344 143.109375 243.875 142.734375 243.617188 142.339844 C 243.535156 142.210938 243.492188 142.070312 243.394531 141.945312 C 242.785156 141.164062 241.980469 140.628906 241.074219 140.273438 C 240.964844 140.230469 240.921875 140.125 240.804688 140.082031 L 151.617188 111.804688 C 148.824219 110.9375 145.796875 112.46875 144.90625 115.28125 C 144.019531 118.105469 145.570312 121.113281 148.394531 122 L 221.515625 145.183594 L 161.917969 164.113281 C 154.121094 166.574219 145.878906 166.574219 138.101562 164.113281 L 16.707031 125.617188 L 138.089844 87.121094 C 145.878906 84.660156 154.121094 84.660156 161.910156 87.121094 L 283.292969 125.617188 L 259.925781 133.03125 C 257.109375 133.929688 255.546875 136.925781 256.449219 139.75 C 257.335938 142.5625 260.332031 144.125 263.167969 143.226562 L 294.28125 133.339844 C 297.628906 132.175781 299.789062 129.136719 299.789062 125.605469 C 299.789062 122.074219 297.628906 119.046875 294.128906 117.816406 Z M 294.128906 117.828125 " fill-opacity="1" fill-rule="nonzero"/></g></svg>